/* XPM */
static char *cba8161d5ab64199e1cb7a43da595d0bJr794Ky6jrcRC8RO[] = {
/* columns rows colors chars-per-pixel */
"32 32 4 1 ",
"  c #72751B",
". c #7F8226",
"X c #787B21",
"o c #656C17",
/* pixels */
"                                ",
"                                ",
"                                ",
"                                ",
"                                ",
"                                ",
"           .                    ",
"      ..X  XX                   ",
"       .XX oX  .                ",
"       oXXXo XXo                ",
"      .XoXX  XXo                ",
"      oXXoX  oo                 ",
"       oXoo                     ",
"                                ",
"                                ",
"                                ",
"                                ",
"                                ",
"                                ",
"                                ",
"                                ",
"                                ",
"                                ",
"                                ",
"                                ",
"                                ",
"                                ",
"                                ",
"                                ",
"                                ",
"                                ",
"                                "
};
