/* XPM */
static char *_f07ea4f3c4f4264b55ce015c9d7ea6em9VTIvWo6ieLFFDL[] = {
/* columns rows colors chars-per-pixel */
"32 32 12 1 ",
"  c None",
". c #77718E",
"X c #575369",
"o c #423F4F",
"O c #5E5C62",
"+ c #74707C",
"@ c #6F6B76",
"# c #B5B3B7",
"$ c #CCCCCD",
"% c #838188",
"& c #8B8892",
"* c #3C2A4D",
/* pixels */
"                                ",
"       ..................       ",
"     ..XXXXXXXXXXXXXXXXXX..     ",
"    .XXXXXXXXXXXXXXXXXXXXXX.    ",
"   .XXXXXXXXXXXXXXXXXXXXXXXX.   ",
"  .XXXXooooooooooooooooooXXXX.  ",
" .XXXXooOOOOOOOOOOOOOOOOooXXXX. ",
".XXXXooO+++++++@@+++++++OooXXXX.",
".XXXooO++#++++@@@@++++#++OooXXX.",
".XXXoO++#$#++++@@++++#$#++OoXXX.",
".XXXoO+++#++++OOOO++++#+++OoXXX.",
".XXXoO+++++++O#$$$O+++++++OoXXX.",
".XXXoO++++++O######O++++++OoXXX.",
".XXXoO+++++O#OO##OO#O+++++OoXXX.",
".XXXoO++@@+O#OO##OO#O+@@++OoXXX.",
".XXXoO++@@++O######O++@@++OoXXX.",
".XXXoO++@@+++O####O+++@@++OoXXX.",
".XXXoO+++++++O#OO#O+++++++OoXXX.",
".XXXoO++++++++OOOO++++++++OoXXX.",
".XXXoO++++++++++++++++++++OoXXX.",
".XXXoO+++#++++++++++++#+++OoXXX.",
".XXXoO++#$#++++++++++#$#++OoXXX.",
".XXXoO+++#++++++++++++#+++OoXXX.",
".XXXoO++++++++++++++++++++OoXXX.",
".XXXoOOOOOOOOOOOOOOOOOOOOOOoXXX.",
".XXXo%&&&&&&&&&&&&&&&&&&&&%oXXX.",
".XXXo%&&&&&&&&&&&&&&&&&&&&%oXXX.",
".XXXo%#$$#&&&&#$$#&&&&#$$#%oXXX.",
".XXXo%&&&&&&&&&&&&&&&&&&&&%oXXX.",
".XXXo%&&&&&&&&&&&&&&&&&&&&%oXXX.",
".XXXo*&&*&&*&&*&&*&&*&&*&&*oXXX.",
".XXXo*%%*%%*%%*%%*%%*%%*%%*oXXX."
};
