/* XPM */
static char *_d076773c1114bbee3257ab4b0fdfd29JLTKhdImfrE9fjVs[] = {
/* columns rows colors chars-per-pixel */
"32 32 21 1 ",
"  c None",
". c #0C0A07",
"X c #4C342F",
"o c #634A45",
"O c #D2A394",
"+ c #E4B5A5",
"@ c #553D39",
"# c #B56A68",
"$ c #291A18",
"% c #3A2B28",
"& c #6E7D61",
"* c #C0AC98",
"= c #4C403D",
"- c #DBCBBC",
"; c #87947C",
": c #425059",
"> c #57636B",
", c #362623",
"< c #554C3C",
"1 c #0D0A06",
"2 c None",
/* pixels */
"                                ",
"                                ",
"             ..  .              ",
"          ...XX..X.             ",
"         .XXXooXXoX.            ",
"          .ooooooooo.           ",
"         .ooooooooooX.          ",
"         .oooXXoXoooXX.         ",
"        .XXooOXoOoooo.          ",
"         .XoOOOoOOooo.          ",
"         .ooO.+O+.OXoo.         ",
"        .@o#O$+++$O#@.          ",
"         .@@O+++++O@@.          ",
"          .@@O+++O@@.           ",
"           .@.OOO.@.            ",
"          .%&%***%&%.           ",
"          .%&=--*=&%.           ",
"         .%%;=---=;%%.          ",
"         .=%&=*--=&%=.          ",
"        .==.%=-*-=%.==.         ",
"        .+O.%%:::%%.O+.         ",
"         ...:>>>>>:...          ",
"           .:>>:>>:.            ",
"           .:>:.:>:.            ",
"           .::. .::.            ",
"           .,,. .,,.            ",
"          .<<,. .,<<.           ",
"        112222222222211         ",
"         1111111111111          ",
"                                ",
"                                ",
"                                "
};
