/* XPM */
static char *b04a498892bd45c4800786a9161d8773W9Ef4ZoNteZV0Tm8[] = {
/* columns rows colors chars-per-pixel */
"32 32 63 1 ",
"  c None",
". c #5B3925",
"X c #5C3925",
"o c #5D3B26",
"O c #5E3C29",
"+ c #5F3D2A",
"@ c #5F3E2A",
"# c #603E2A",
"$ c #603F2A",
"% c #603F2B",
"& c #5E3D29",
"* c #5D3B27",
"= c #5A3724",
"- c #5A3621",
"; c #583521",
": c #5B3823",
"> c #A2A09A",
", c #8E8C81",
"< c #878579",
"1 c #593520",
"2 c #5A3723",
"3 c #7F7C72",
"4 c #6D695F",
"5 c #593621",
"6 c #5A3722",
"7 c #9D9B94",
"8 c #9F9D96",
"9 c #5B3824",
"0 c #9C9A92",
"q c #747065",
"w c #9A9890",
"e c #9B9991",
"r c #645E52",
"t c #99978E",
"y c #5D3A26",
"u c #5B3924",
"i c #98968E",
"p c #5E3B27",
"a c #5E3C27",
"s c #5C3A25",
"d c #5E3C28",
"f c #615A4F",
"g c #583520",
"h c #8E8C82",
"j c #7C796F",
"k c #583420",
"l c #8B8980",
"z c #8E8C83",
"x c #918D84",
"c c #9D9A92",
"v c #79776C",
"b c #58341F",
"n c #8B897E",
"m c #8D8B82",
"M c #8F8D83",
"N c #827F76",
"B c #7B766E",
"V c #7B7770",
"C c #827F77",
"Z c #7A756D",
"A c #57341F",
"S c #8D8B81",
"D c #57331E",
/* pixels */
"   .XoO+@@@#$%%%%%%%%%@@&*=-;   ",
"  :>,,,<<<<<<<<<<<<<,,,,,,,,>1  ",
" 23>,,<<<<<<<<<<<<<<,,,,,,,,>45 ",
"6337,,<<<<<<<<<<<<<<<<<,,,,,8445",
"9330<<<<<<<<<<<<<<<<<<<,,<<<7446",
"X3qw<<<<<<<<<<<<<<<<<<<<<<<<e4r2",
"oqqt<<<<<<<<<<<<<<<<<<<<<<<<w4r9",
"yqqt<<<<<<<<<<<<<<<<<<<<<<<<wrru",
"*qqt<<<<<<<<<<<<<<<<<<<<<<<<irrX",
"pqqt<<<<<<<<<<<<<<<<<<<<<<<<irrX",
"pqqt<<<<<<<<<<<<<<<<<<<<<<<<irrX",
"aqqt<<<<<<<<<<<<<<<<<<<<<<<<irrs",
"aqqt<<<<<<<<<<<<<<<<<<<<<<<<irrs",
"aqqt<<<<<<<<<<<<<<<<<<<<<<<<irrX",
"aqqt<<<<<<<<<<<<<<<<<<<<<<<<irrs",
"aqqt<<<<<<<<<<<<<<<<<<<<<<<<irrs",
"dqqt,<<<<<<<<<<<<<<<<<<<<<<<irrs",
"dqqt,,,<<<<<<<<<<<<<<<<<<<<<irrs",
"dqqt,,,<<<<<<<<<<<<<<,,<<<<<irrX",
"dqq0,,,<<<<<<<<<<<<<<,,<<<<<irrX",
"pqq>,<<<<<<<<<<<<<<<<<<<<<<<irrX",
"*qq>,<<<<<<<<<<<<<<<<<<<<<<<irr9",
"oqq>,<<<<<<<<<<<<<<<<<<<<<<<irr2",
"sqq>,,,<<<<<<<<<<<<<<<<<<<<,>rr6",
"uqq>,,,,,<<<<<<<<<<<<<<<<<,,>rr5",
"2qq>,,,,,<<<,,<<<<<<<<<<,,,,>ffg",
"5qqh>,,,,,,,,,<<<<<<<<<<,,,>jffk",
"1qlzx>>>>>>ccccccc>>>>>>>>>vvvfb",
"bnmM>NNNNBBBBBBVVCCCNVBBBBZ>vvvA",
"bnS>NNNNBBBBBBBBBBNNNBBBBBBB>vvD",
" D>NNBBBBBBBBBBBBBBBBBBBBBBBB>D ",
"  DDDDDDDDDDDDDDDDDDDDDDDDDDDD  "
};
